<svg width="900" height="920" viewBox="0 0 900 920" xmlns="http://www.w3.org/2000/svg" font-family="'IBM Plex Sans','Helvetica Neue',Arial,sans-serif">
<defs><clipPath id="cardClipGold"><rect x="0" y="0" width="350" height="200"/></clipPath></defs>

  <!-- Page background -->
  <rect x="0" y="0" width="900" height="920" fill="#EDEDED"/>

  <!-- ===================== FRONT (layered gold + navy) ===================== -->
  <g transform="translate(112, 52)">
    <rect x="6" y="6" width="700" height="400" fill="#000000" opacity="0.12"/>
    <g transform="scale(2)" clip-path="url(#cardClipGold)">
      <!-- base cream -->
      <rect x="0" y="0" width="350" height="200" fill="#F1E1BB"/>
      <!-- mid-gold ring layer -->
      <circle cx="400" cy="100" r="182" fill="#D3A34F"/>
      <!-- navy accent on top -->
      <circle cx="400" cy="100" r="168" fill="#16213E"/>

      <!-- large faint watermark bars on the cream area, reinforcing identity -->
      <g transform="translate(20, 120)" opacity="0.09" fill="#8A6D3A">
        <rect x="0" y="14" width="10" height="34"/>
        <rect x="14" y="0" width="10" height="48"/>
        <rect x="28" y="20" width="10" height="28"/>
      </g>

      <!-- Logo lockup, on the navy curve -->
      <g transform="translate(266, 22)">
        <rect x="0" y="7" width="5" height="17" fill="#D3A34F"/>
        <rect x="7" y="1" width="5" height="23" fill="#FFFFFF"/>
        <rect x="14" y="10" width="5" height="14" fill="#D3A34F"/>
        <text x="24" y="15" font-size="13" font-weight="700" fill="#FFFFFF" letter-spacing="0.3">KATAX</text>
        <text x="24" y="23" font-size="4.6" font-weight="500" fill="#E4CFA0" letter-spacing="0.4">ACCOUNTING &amp; TAX</text>
      </g>

      <!-- Name and title -->
      <text x="24" y="55" font-size="19" font-weight="700" fill="#16213E">ESSA ISMAIL</text>
      <text x="24" y="68" font-size="9.5" font-weight="700" fill="#8A6D3A" letter-spacing="0.6">PRINCIPAL</text>

      <!-- Divider -->
      <line x1="24" y1="78" x2="165" y2="78" stroke="#8A6D3A" stroke-width="0.6" opacity="0.5"/>

      <!-- Contact rows with icon badges -->
      <g font-size="8" fill="#2A241F" font-weight="500">

        <circle cx="33" cy="95" r="9.5" fill="#16213E"/>
        <g transform="translate(28.3, 90.3)" stroke="#D3A34F" stroke-width="1.3" fill="none" stroke-linecap="round" stroke-linejoin="round">
          <path d="M0 1h2.6l1.1 3-1.6 1.3a9.6 9.6 0 0 0 5 5l1.3-1.6 3 1.1v2.6c0 .9-.8 1.6-1.6 1.6C4.9 14 .8 9.9 0 4.4c0-.8.7-1.6.8-2.4z" transform="scale(0.62)"/>
        </g>
        <text x="49" y="93">437-230-5860</text>
        <text x="49" y="102" font-size="6.5" fill="#8A6D3A">Call or text anytime</text>

        <circle cx="33" cy="120" r="9.5" fill="#16213E"/>
        <g transform="translate(27, 115.3)" stroke="#D3A34F" stroke-width="1.3" fill="none" stroke-linecap="round" stroke-linejoin="round">
          <rect x="0" y="0" width="12" height="8.6" rx="1" transform="scale(0.88)"/>
          <path d="M0.4 0.7 6 5.6 11.5 0.7" transform="scale(0.88)"/>
        </g>
        <text x="49" y="118">admin@katax.ca</text>
        <text x="49" y="127" font-size="6.5" fill="#8A6D3A">www.katax.ca</text>

        <circle cx="33" cy="145" r="9.5" fill="#16213E"/>
        <g transform="translate(29, 139.6)" stroke="#D3A34F" stroke-width="1.3" fill="none" stroke-linecap="round" stroke-linejoin="round">
          <path d="M5 12s4.3-3.9 4.3-7.2A4.3 4.3 0 0 0 0.7 4.8C0.7 8.1 5 12 5 12z" transform="scale(0.78)"/>
          <circle cx="5" cy="4.8" r="1.5" transform="scale(0.78)"/>
        </g>
        <text x="49" y="143">Toronto, ON</text>
        <text x="49" y="152" font-size="6.5" fill="#8A6D3A">M1E 4Y2</text>
      </g>

<g>
        <rect x="296" y="146" width="44" height="44" rx="2" fill="#FFFFFF"/>
        <rect x="299.0" y="149.0" width="1.5" height="1.5" fill="#16213E"/>
        <rect x="300.5" y="149.0" width="1.5" height="1.5" fill="#16213E"/>
        <rect x="302.0" y="149.0" width="1.5" height="1.5" fill="#16213E"/>
        <rect x="303.5" y="149.0" width="1.5" height="1.5" fill="#16213E"/>
        <rect x="305.0" y="149.0" width="1.5" height="1.5" fill="#16213E"/>
        <rect x="306.5" y="149.0" width="1.5" height="1.5" fill="#16213E"/>
        <rect x="308.0" y="149.0" width="1.5" height="1.5" fill="#16213E"/>
        <rect x="312.5" y="149.0" width="1.5" height="1.5" fill="#16213E"/>
        <rect x="314.0" y="149.0" width="1.5" height="1.5" fill="#16213E"/>
        <rect x="315.5" y="149.0" width="1.5" height="1.5" fill="#16213E"/>
        <rect x="320.0" y="149.0" width="1.5" height="1.5" fill="#16213E"/>
        <rect x="323.0" y="149.0" width="1.5" height="1.5" fill="#16213E"/>
        <rect x="326.0" y="149.0" width="1.5" height="1.5" fill="#16213E"/>
        <rect x="327.5" y="149.0" width="1.5" height="1.5" fill="#16213E"/>
        <rect x="329.0" y="149.0" width="1.5" height="1.5" fill="#16213E"/>
        <rect x="330.5" y="149.0" width="1.5" height="1.5" fill="#16213E"/>
        <rect x="332.0" y="149.0" width="1.5" height="1.5" fill="#16213E"/>
        <rect x="333.5" y="149.0" width="1.5" height="1.5" fill="#16213E"/>
        <rect x="335.0" y="149.0" width="1.5" height="1.5" fill="#16213E"/>
        <rect x="299.0" y="150.5" width="1.5" height="1.5" fill="#16213E"/>
        <rect x="308.0" y="150.5" width="1.5" height="1.5" fill="#16213E"/>
        <rect x="315.5" y="150.5" width="1.5" height="1.5" fill="#16213E"/>
        <rect x="317.0" y="150.5" width="1.5" height="1.5" fill="#16213E"/>
        <rect x="318.5" y="150.5" width="1.5" height="1.5" fill="#16213E"/>
        <rect x="320.0" y="150.5" width="1.5" height="1.5" fill="#16213E"/>
        <rect x="326.0" y="150.5" width="1.5" height="1.5" fill="#16213E"/>
        <rect x="335.0" y="150.5" width="1.5" height="1.5" fill="#16213E"/>
        <rect x="299.0" y="152.0" width="1.5" height="1.5" fill="#16213E"/>
        <rect x="302.0" y="152.0" width="1.5" height="1.5" fill="#16213E"/>
        <rect x="303.5" y="152.0" width="1.5" height="1.5" fill="#16213E"/>
        <rect x="305.0" y="152.0" width="1.5" height="1.5" fill="#16213E"/>
        <rect x="308.0" y="152.0" width="1.5" height="1.5" fill="#16213E"/>
        <rect x="312.5" y="152.0" width="1.5" height="1.5" fill="#16213E"/>
        <rect x="314.0" y="152.0" width="1.5" height="1.5" fill="#16213E"/>
        <rect x="315.5" y="152.0" width="1.5" height="1.5" fill="#16213E"/>
        <rect x="321.5" y="152.0" width="1.5" height="1.5" fill="#16213E"/>
        <rect x="326.0" y="152.0" width="1.5" height="1.5" fill="#16213E"/>
        <rect x="329.0" y="152.0" width="1.5" height="1.5" fill="#16213E"/>
        <rect x="330.5" y="152.0" width="1.5" height="1.5" fill="#16213E"/>
        <rect x="332.0" y="152.0" width="1.5" height="1.5" fill="#16213E"/>
        <rect x="335.0" y="152.0" width="1.5" height="1.5" fill="#16213E"/>
        <rect x="299.0" y="153.5" width="1.5" height="1.5" fill="#16213E"/>
        <rect x="302.0" y="153.5" width="1.5" height="1.5" fill="#16213E"/>
        <rect x="303.5" y="153.5" width="1.5" height="1.5" fill="#16213E"/>
        <rect x="305.0" y="153.5" width="1.5" height="1.5" fill="#16213E"/>
        <rect x="308.0" y="153.5" width="1.5" height="1.5" fill="#16213E"/>
        <rect x="311.0" y="153.5" width="1.5" height="1.5" fill="#16213E"/>
        <rect x="314.0" y="153.5" width="1.5" height="1.5" fill="#16213E"/>
        <rect x="315.5" y="153.5" width="1.5" height="1.5" fill="#16213E"/>
        <rect x="318.5" y="153.5" width="1.5" height="1.5" fill="#16213E"/>
        <rect x="321.5" y="153.5" width="1.5" height="1.5" fill="#16213E"/>
        <rect x="326.0" y="153.5" width="1.5" height="1.5" fill="#16213E"/>
        <rect x="329.0" y="153.5" width="1.5" height="1.5" fill="#16213E"/>
        <rect x="330.5" y="153.5" width="1.5" height="1.5" fill="#16213E"/>
        <rect x="332.0" y="153.5" width="1.5" height="1.5" fill="#16213E"/>
        <rect x="335.0" y="153.5" width="1.5" height="1.5" fill="#16213E"/>
        <rect x="299.0" y="155.0" width="1.5" height="1.5" fill="#16213E"/>
        <rect x="302.0" y="155.0" width="1.5" height="1.5" fill="#16213E"/>
        <rect x="303.5" y="155.0" width="1.5" height="1.5" fill="#16213E"/>
        <rect x="305.0" y="155.0" width="1.5" height="1.5" fill="#16213E"/>
        <rect x="308.0" y="155.0" width="1.5" height="1.5" fill="#16213E"/>
        <rect x="311.0" y="155.0" width="1.5" height="1.5" fill="#16213E"/>
        <rect x="314.0" y="155.0" width="1.5" height="1.5" fill="#16213E"/>
        <rect x="317.0" y="155.0" width="1.5" height="1.5" fill="#16213E"/>
        <rect x="323.0" y="155.0" width="1.5" height="1.5" fill="#16213E"/>
        <rect x="326.0" y="155.0" width="1.5" height="1.5" fill="#16213E"/>
        <rect x="329.0" y="155.0" width="1.5" height="1.5" fill="#16213E"/>
        <rect x="330.5" y="155.0" width="1.5" height="1.5" fill="#16213E"/>
        <rect x="332.0" y="155.0" width="1.5" height="1.5" fill="#16213E"/>
        <rect x="335.0" y="155.0" width="1.5" height="1.5" fill="#16213E"/>
        <rect x="299.0" y="156.5" width="1.5" height="1.5" fill="#16213E"/>
        <rect x="308.0" y="156.5" width="1.5" height="1.5" fill="#16213E"/>
        <rect x="312.5" y="156.5" width="1.5" height="1.5" fill="#16213E"/>
        <rect x="314.0" y="156.5" width="1.5" height="1.5" fill="#16213E"/>
        <rect x="318.5" y="156.5" width="1.5" height="1.5" fill="#16213E"/>
        <rect x="323.0" y="156.5" width="1.5" height="1.5" fill="#16213E"/>
        <rect x="326.0" y="156.5" width="1.5" height="1.5" fill="#16213E"/>
        <rect x="335.0" y="156.5" width="1.5" height="1.5" fill="#16213E"/>
        <rect x="299.0" y="158.0" width="1.5" height="1.5" fill="#16213E"/>
        <rect x="300.5" y="158.0" width="1.5" height="1.5" fill="#16213E"/>
        <rect x="302.0" y="158.0" width="1.5" height="1.5" fill="#16213E"/>
        <rect x="303.5" y="158.0" width="1.5" height="1.5" fill="#16213E"/>
        <rect x="305.0" y="158.0" width="1.5" height="1.5" fill="#16213E"/>
        <rect x="306.5" y="158.0" width="1.5" height="1.5" fill="#16213E"/>
        <rect x="308.0" y="158.0" width="1.5" height="1.5" fill="#16213E"/>
        <rect x="311.0" y="158.0" width="1.5" height="1.5" fill="#16213E"/>
        <rect x="314.0" y="158.0" width="1.5" height="1.5" fill="#16213E"/>
        <rect x="317.0" y="158.0" width="1.5" height="1.5" fill="#16213E"/>
        <rect x="320.0" y="158.0" width="1.5" height="1.5" fill="#16213E"/>
        <rect x="323.0" y="158.0" width="1.5" height="1.5" fill="#16213E"/>
        <rect x="326.0" y="158.0" width="1.5" height="1.5" fill="#16213E"/>
        <rect x="327.5" y="158.0" width="1.5" height="1.5" fill="#16213E"/>
        <rect x="329.0" y="158.0" width="1.5" height="1.5" fill="#16213E"/>
        <rect x="330.5" y="158.0" width="1.5" height="1.5" fill="#16213E"/>
        <rect x="332.0" y="158.0" width="1.5" height="1.5" fill="#16213E"/>
        <rect x="333.5" y="158.0" width="1.5" height="1.5" fill="#16213E"/>
        <rect x="335.0" y="158.0" width="1.5" height="1.5" fill="#16213E"/>
        <rect x="312.5" y="159.5" width="1.5" height="1.5" fill="#16213E"/>
        <rect x="317.0" y="159.5" width="1.5" height="1.5" fill="#16213E"/>
        <rect x="320.0" y="159.5" width="1.5" height="1.5" fill="#16213E"/>
        <rect x="299.0" y="161.0" width="1.5" height="1.5" fill="#16213E"/>
        <rect x="300.5" y="161.0" width="1.5" height="1.5" fill="#16213E"/>
        <rect x="306.5" y="161.0" width="1.5" height="1.5" fill="#16213E"/>
        <rect x="308.0" y="161.0" width="1.5" height="1.5" fill="#16213E"/>
        <rect x="309.5" y="161.0" width="1.5" height="1.5" fill="#16213E"/>
        <rect x="312.5" y="161.0" width="1.5" height="1.5" fill="#16213E"/>
        <rect x="314.0" y="161.0" width="1.5" height="1.5" fill="#16213E"/>
        <rect x="317.0" y="161.0" width="1.5" height="1.5" fill="#16213E"/>
        <rect x="318.5" y="161.0" width="1.5" height="1.5" fill="#16213E"/>
        <rect x="320.0" y="161.0" width="1.5" height="1.5" fill="#16213E"/>
        <rect x="321.5" y="161.0" width="1.5" height="1.5" fill="#16213E"/>
        <rect x="329.0" y="161.0" width="1.5" height="1.5" fill="#16213E"/>
        <rect x="330.5" y="161.0" width="1.5" height="1.5" fill="#16213E"/>
        <rect x="302.0" y="162.5" width="1.5" height="1.5" fill="#16213E"/>
        <rect x="305.0" y="162.5" width="1.5" height="1.5" fill="#16213E"/>
        <rect x="314.0" y="162.5" width="1.5" height="1.5" fill="#16213E"/>
        <rect x="320.0" y="162.5" width="1.5" height="1.5" fill="#16213E"/>
        <rect x="321.5" y="162.5" width="1.5" height="1.5" fill="#16213E"/>
        <rect x="324.5" y="162.5" width="1.5" height="1.5" fill="#16213E"/>
        <rect x="327.5" y="162.5" width="1.5" height="1.5" fill="#16213E"/>
        <rect x="329.0" y="162.5" width="1.5" height="1.5" fill="#16213E"/>
        <rect x="330.5" y="162.5" width="1.5" height="1.5" fill="#16213E"/>
        <rect x="332.0" y="162.5" width="1.5" height="1.5" fill="#16213E"/>
        <rect x="333.5" y="162.5" width="1.5" height="1.5" fill="#16213E"/>
        <rect x="299.0" y="164.0" width="1.5" height="1.5" fill="#16213E"/>
        <rect x="300.5" y="164.0" width="1.5" height="1.5" fill="#16213E"/>
        <rect x="302.0" y="164.0" width="1.5" height="1.5" fill="#16213E"/>
        <rect x="303.5" y="164.0" width="1.5" height="1.5" fill="#16213E"/>
        <rect x="306.5" y="164.0" width="1.5" height="1.5" fill="#16213E"/>
        <rect x="308.0" y="164.0" width="1.5" height="1.5" fill="#16213E"/>
        <rect x="309.5" y="164.0" width="1.5" height="1.5" fill="#16213E"/>
        <rect x="311.0" y="164.0" width="1.5" height="1.5" fill="#16213E"/>
        <rect x="312.5" y="164.0" width="1.5" height="1.5" fill="#16213E"/>
        <rect x="315.5" y="164.0" width="1.5" height="1.5" fill="#16213E"/>
        <rect x="317.0" y="164.0" width="1.5" height="1.5" fill="#16213E"/>
        <rect x="321.5" y="164.0" width="1.5" height="1.5" fill="#16213E"/>
        <rect x="324.5" y="164.0" width="1.5" height="1.5" fill="#16213E"/>
        <rect x="326.0" y="164.0" width="1.5" height="1.5" fill="#16213E"/>
        <rect x="327.5" y="164.0" width="1.5" height="1.5" fill="#16213E"/>
        <rect x="329.0" y="164.0" width="1.5" height="1.5" fill="#16213E"/>
        <rect x="330.5" y="164.0" width="1.5" height="1.5" fill="#16213E"/>
        <rect x="333.5" y="164.0" width="1.5" height="1.5" fill="#16213E"/>
        <rect x="335.0" y="164.0" width="1.5" height="1.5" fill="#16213E"/>
        <rect x="299.0" y="165.5" width="1.5" height="1.5" fill="#16213E"/>
        <rect x="302.0" y="165.5" width="1.5" height="1.5" fill="#16213E"/>
        <rect x="303.5" y="165.5" width="1.5" height="1.5" fill="#16213E"/>
        <rect x="309.5" y="165.5" width="1.5" height="1.5" fill="#16213E"/>
        <rect x="311.0" y="165.5" width="1.5" height="1.5" fill="#16213E"/>
        <rect x="314.0" y="165.5" width="1.5" height="1.5" fill="#16213E"/>
        <rect x="315.5" y="165.5" width="1.5" height="1.5" fill="#16213E"/>
        <rect x="320.0" y="165.5" width="1.5" height="1.5" fill="#16213E"/>
        <rect x="323.0" y="165.5" width="1.5" height="1.5" fill="#16213E"/>
        <rect x="324.5" y="165.5" width="1.5" height="1.5" fill="#16213E"/>
        <rect x="327.5" y="165.5" width="1.5" height="1.5" fill="#16213E"/>
        <rect x="330.5" y="165.5" width="1.5" height="1.5" fill="#16213E"/>
        <rect x="335.0" y="165.5" width="1.5" height="1.5" fill="#16213E"/>
        <rect x="300.5" y="167.0" width="1.5" height="1.5" fill="#16213E"/>
        <rect x="302.0" y="167.0" width="1.5" height="1.5" fill="#16213E"/>
        <rect x="305.0" y="167.0" width="1.5" height="1.5" fill="#16213E"/>
        <rect x="308.0" y="167.0" width="1.5" height="1.5" fill="#16213E"/>
        <rect x="309.5" y="167.0" width="1.5" height="1.5" fill="#16213E"/>
        <rect x="312.5" y="167.0" width="1.5" height="1.5" fill="#16213E"/>
        <rect x="314.0" y="167.0" width="1.5" height="1.5" fill="#16213E"/>
        <rect x="318.5" y="167.0" width="1.5" height="1.5" fill="#16213E"/>
        <rect x="320.0" y="167.0" width="1.5" height="1.5" fill="#16213E"/>
        <rect x="321.5" y="167.0" width="1.5" height="1.5" fill="#16213E"/>
        <rect x="326.0" y="167.0" width="1.5" height="1.5" fill="#16213E"/>
        <rect x="335.0" y="167.0" width="1.5" height="1.5" fill="#16213E"/>
        <rect x="299.0" y="168.5" width="1.5" height="1.5" fill="#16213E"/>
        <rect x="300.5" y="168.5" width="1.5" height="1.5" fill="#16213E"/>
        <rect x="302.0" y="168.5" width="1.5" height="1.5" fill="#16213E"/>
        <rect x="303.5" y="168.5" width="1.5" height="1.5" fill="#16213E"/>
        <rect x="309.5" y="168.5" width="1.5" height="1.5" fill="#16213E"/>
        <rect x="311.0" y="168.5" width="1.5" height="1.5" fill="#16213E"/>
        <rect x="312.5" y="168.5" width="1.5" height="1.5" fill="#16213E"/>
        <rect x="314.0" y="168.5" width="1.5" height="1.5" fill="#16213E"/>
        <rect x="317.0" y="168.5" width="1.5" height="1.5" fill="#16213E"/>
        <rect x="318.5" y="168.5" width="1.5" height="1.5" fill="#16213E"/>
        <rect x="321.5" y="168.5" width="1.5" height="1.5" fill="#16213E"/>
        <rect x="323.0" y="168.5" width="1.5" height="1.5" fill="#16213E"/>
        <rect x="324.5" y="168.5" width="1.5" height="1.5" fill="#16213E"/>
        <rect x="327.5" y="168.5" width="1.5" height="1.5" fill="#16213E"/>
        <rect x="333.5" y="168.5" width="1.5" height="1.5" fill="#16213E"/>
        <rect x="299.0" y="170.0" width="1.5" height="1.5" fill="#16213E"/>
        <rect x="303.5" y="170.0" width="1.5" height="1.5" fill="#16213E"/>
        <rect x="308.0" y="170.0" width="1.5" height="1.5" fill="#16213E"/>
        <rect x="309.5" y="170.0" width="1.5" height="1.5" fill="#16213E"/>
        <rect x="318.5" y="170.0" width="1.5" height="1.5" fill="#16213E"/>
        <rect x="320.0" y="170.0" width="1.5" height="1.5" fill="#16213E"/>
        <rect x="321.5" y="170.0" width="1.5" height="1.5" fill="#16213E"/>
        <rect x="323.0" y="170.0" width="1.5" height="1.5" fill="#16213E"/>
        <rect x="324.5" y="170.0" width="1.5" height="1.5" fill="#16213E"/>
        <rect x="326.0" y="170.0" width="1.5" height="1.5" fill="#16213E"/>
        <rect x="327.5" y="170.0" width="1.5" height="1.5" fill="#16213E"/>
        <rect x="329.0" y="170.0" width="1.5" height="1.5" fill="#16213E"/>
        <rect x="330.5" y="170.0" width="1.5" height="1.5" fill="#16213E"/>
        <rect x="333.5" y="170.0" width="1.5" height="1.5" fill="#16213E"/>
        <rect x="335.0" y="170.0" width="1.5" height="1.5" fill="#16213E"/>
        <rect x="299.0" y="171.5" width="1.5" height="1.5" fill="#16213E"/>
        <rect x="306.5" y="171.5" width="1.5" height="1.5" fill="#16213E"/>
        <rect x="311.0" y="171.5" width="1.5" height="1.5" fill="#16213E"/>
        <rect x="317.0" y="171.5" width="1.5" height="1.5" fill="#16213E"/>
        <rect x="318.5" y="171.5" width="1.5" height="1.5" fill="#16213E"/>
        <rect x="320.0" y="171.5" width="1.5" height="1.5" fill="#16213E"/>
        <rect x="323.0" y="171.5" width="1.5" height="1.5" fill="#16213E"/>
        <rect x="324.5" y="171.5" width="1.5" height="1.5" fill="#16213E"/>
        <rect x="327.5" y="171.5" width="1.5" height="1.5" fill="#16213E"/>
        <rect x="330.5" y="171.5" width="1.5" height="1.5" fill="#16213E"/>
        <rect x="332.0" y="171.5" width="1.5" height="1.5" fill="#16213E"/>
        <rect x="335.0" y="171.5" width="1.5" height="1.5" fill="#16213E"/>
        <rect x="299.0" y="173.0" width="1.5" height="1.5" fill="#16213E"/>
        <rect x="302.0" y="173.0" width="1.5" height="1.5" fill="#16213E"/>
        <rect x="305.0" y="173.0" width="1.5" height="1.5" fill="#16213E"/>
        <rect x="308.0" y="173.0" width="1.5" height="1.5" fill="#16213E"/>
        <rect x="309.5" y="173.0" width="1.5" height="1.5" fill="#16213E"/>
        <rect x="311.0" y="173.0" width="1.5" height="1.5" fill="#16213E"/>
        <rect x="312.5" y="173.0" width="1.5" height="1.5" fill="#16213E"/>
        <rect x="314.0" y="173.0" width="1.5" height="1.5" fill="#16213E"/>
        <rect x="317.0" y="173.0" width="1.5" height="1.5" fill="#16213E"/>
        <rect x="320.0" y="173.0" width="1.5" height="1.5" fill="#16213E"/>
        <rect x="321.5" y="173.0" width="1.5" height="1.5" fill="#16213E"/>
        <rect x="323.0" y="173.0" width="1.5" height="1.5" fill="#16213E"/>
        <rect x="324.5" y="173.0" width="1.5" height="1.5" fill="#16213E"/>
        <rect x="326.0" y="173.0" width="1.5" height="1.5" fill="#16213E"/>
        <rect x="327.5" y="173.0" width="1.5" height="1.5" fill="#16213E"/>
        <rect x="329.0" y="173.0" width="1.5" height="1.5" fill="#16213E"/>
        <rect x="332.0" y="173.0" width="1.5" height="1.5" fill="#16213E"/>
        <rect x="311.0" y="174.5" width="1.5" height="1.5" fill="#16213E"/>
        <rect x="312.5" y="174.5" width="1.5" height="1.5" fill="#16213E"/>
        <rect x="323.0" y="174.5" width="1.5" height="1.5" fill="#16213E"/>
        <rect x="329.0" y="174.5" width="1.5" height="1.5" fill="#16213E"/>
        <rect x="299.0" y="176.0" width="1.5" height="1.5" fill="#16213E"/>
        <rect x="300.5" y="176.0" width="1.5" height="1.5" fill="#16213E"/>
        <rect x="302.0" y="176.0" width="1.5" height="1.5" fill="#16213E"/>
        <rect x="303.5" y="176.0" width="1.5" height="1.5" fill="#16213E"/>
        <rect x="305.0" y="176.0" width="1.5" height="1.5" fill="#16213E"/>
        <rect x="306.5" y="176.0" width="1.5" height="1.5" fill="#16213E"/>
        <rect x="308.0" y="176.0" width="1.5" height="1.5" fill="#16213E"/>
        <rect x="311.0" y="176.0" width="1.5" height="1.5" fill="#16213E"/>
        <rect x="317.0" y="176.0" width="1.5" height="1.5" fill="#16213E"/>
        <rect x="318.5" y="176.0" width="1.5" height="1.5" fill="#16213E"/>
        <rect x="320.0" y="176.0" width="1.5" height="1.5" fill="#16213E"/>
        <rect x="323.0" y="176.0" width="1.5" height="1.5" fill="#16213E"/>
        <rect x="326.0" y="176.0" width="1.5" height="1.5" fill="#16213E"/>
        <rect x="329.0" y="176.0" width="1.5" height="1.5" fill="#16213E"/>
        <rect x="335.0" y="176.0" width="1.5" height="1.5" fill="#16213E"/>
        <rect x="299.0" y="177.5" width="1.5" height="1.5" fill="#16213E"/>
        <rect x="308.0" y="177.5" width="1.5" height="1.5" fill="#16213E"/>
        <rect x="311.0" y="177.5" width="1.5" height="1.5" fill="#16213E"/>
        <rect x="312.5" y="177.5" width="1.5" height="1.5" fill="#16213E"/>
        <rect x="314.0" y="177.5" width="1.5" height="1.5" fill="#16213E"/>
        <rect x="315.5" y="177.5" width="1.5" height="1.5" fill="#16213E"/>
        <rect x="320.0" y="177.5" width="1.5" height="1.5" fill="#16213E"/>
        <rect x="321.5" y="177.5" width="1.5" height="1.5" fill="#16213E"/>
        <rect x="323.0" y="177.5" width="1.5" height="1.5" fill="#16213E"/>
        <rect x="329.0" y="177.5" width="1.5" height="1.5" fill="#16213E"/>
        <rect x="335.0" y="177.5" width="1.5" height="1.5" fill="#16213E"/>
        <rect x="299.0" y="179.0" width="1.5" height="1.5" fill="#16213E"/>
        <rect x="302.0" y="179.0" width="1.5" height="1.5" fill="#16213E"/>
        <rect x="303.5" y="179.0" width="1.5" height="1.5" fill="#16213E"/>
        <rect x="305.0" y="179.0" width="1.5" height="1.5" fill="#16213E"/>
        <rect x="308.0" y="179.0" width="1.5" height="1.5" fill="#16213E"/>
        <rect x="314.0" y="179.0" width="1.5" height="1.5" fill="#16213E"/>
        <rect x="315.5" y="179.0" width="1.5" height="1.5" fill="#16213E"/>
        <rect x="321.5" y="179.0" width="1.5" height="1.5" fill="#16213E"/>
        <rect x="323.0" y="179.0" width="1.5" height="1.5" fill="#16213E"/>
        <rect x="324.5" y="179.0" width="1.5" height="1.5" fill="#16213E"/>
        <rect x="326.0" y="179.0" width="1.5" height="1.5" fill="#16213E"/>
        <rect x="327.5" y="179.0" width="1.5" height="1.5" fill="#16213E"/>
        <rect x="329.0" y="179.0" width="1.5" height="1.5" fill="#16213E"/>
        <rect x="332.0" y="179.0" width="1.5" height="1.5" fill="#16213E"/>
        <rect x="333.5" y="179.0" width="1.5" height="1.5" fill="#16213E"/>
        <rect x="335.0" y="179.0" width="1.5" height="1.5" fill="#16213E"/>
        <rect x="299.0" y="180.5" width="1.5" height="1.5" fill="#16213E"/>
        <rect x="302.0" y="180.5" width="1.5" height="1.5" fill="#16213E"/>
        <rect x="303.5" y="180.5" width="1.5" height="1.5" fill="#16213E"/>
        <rect x="305.0" y="180.5" width="1.5" height="1.5" fill="#16213E"/>
        <rect x="308.0" y="180.5" width="1.5" height="1.5" fill="#16213E"/>
        <rect x="312.5" y="180.5" width="1.5" height="1.5" fill="#16213E"/>
        <rect x="314.0" y="180.5" width="1.5" height="1.5" fill="#16213E"/>
        <rect x="317.0" y="180.5" width="1.5" height="1.5" fill="#16213E"/>
        <rect x="318.5" y="180.5" width="1.5" height="1.5" fill="#16213E"/>
        <rect x="321.5" y="180.5" width="1.5" height="1.5" fill="#16213E"/>
        <rect x="326.0" y="180.5" width="1.5" height="1.5" fill="#16213E"/>
        <rect x="333.5" y="180.5" width="1.5" height="1.5" fill="#16213E"/>
        <rect x="335.0" y="180.5" width="1.5" height="1.5" fill="#16213E"/>
        <rect x="299.0" y="182.0" width="1.5" height="1.5" fill="#16213E"/>
        <rect x="302.0" y="182.0" width="1.5" height="1.5" fill="#16213E"/>
        <rect x="303.5" y="182.0" width="1.5" height="1.5" fill="#16213E"/>
        <rect x="305.0" y="182.0" width="1.5" height="1.5" fill="#16213E"/>
        <rect x="308.0" y="182.0" width="1.5" height="1.5" fill="#16213E"/>
        <rect x="312.5" y="182.0" width="1.5" height="1.5" fill="#16213E"/>
        <rect x="314.0" y="182.0" width="1.5" height="1.5" fill="#16213E"/>
        <rect x="318.5" y="182.0" width="1.5" height="1.5" fill="#16213E"/>
        <rect x="320.0" y="182.0" width="1.5" height="1.5" fill="#16213E"/>
        <rect x="321.5" y="182.0" width="1.5" height="1.5" fill="#16213E"/>
        <rect x="323.0" y="182.0" width="1.5" height="1.5" fill="#16213E"/>
        <rect x="330.5" y="182.0" width="1.5" height="1.5" fill="#16213E"/>
        <rect x="332.0" y="182.0" width="1.5" height="1.5" fill="#16213E"/>
        <rect x="335.0" y="182.0" width="1.5" height="1.5" fill="#16213E"/>
        <rect x="299.0" y="183.5" width="1.5" height="1.5" fill="#16213E"/>
        <rect x="308.0" y="183.5" width="1.5" height="1.5" fill="#16213E"/>
        <rect x="311.0" y="183.5" width="1.5" height="1.5" fill="#16213E"/>
        <rect x="312.5" y="183.5" width="1.5" height="1.5" fill="#16213E"/>
        <rect x="314.0" y="183.5" width="1.5" height="1.5" fill="#16213E"/>
        <rect x="317.0" y="183.5" width="1.5" height="1.5" fill="#16213E"/>
        <rect x="318.5" y="183.5" width="1.5" height="1.5" fill="#16213E"/>
        <rect x="323.0" y="183.5" width="1.5" height="1.5" fill="#16213E"/>
        <rect x="324.5" y="183.5" width="1.5" height="1.5" fill="#16213E"/>
        <rect x="327.5" y="183.5" width="1.5" height="1.5" fill="#16213E"/>
        <rect x="329.0" y="183.5" width="1.5" height="1.5" fill="#16213E"/>
        <rect x="335.0" y="183.5" width="1.5" height="1.5" fill="#16213E"/>
        <rect x="299.0" y="185.0" width="1.5" height="1.5" fill="#16213E"/>
        <rect x="300.5" y="185.0" width="1.5" height="1.5" fill="#16213E"/>
        <rect x="302.0" y="185.0" width="1.5" height="1.5" fill="#16213E"/>
        <rect x="303.5" y="185.0" width="1.5" height="1.5" fill="#16213E"/>
        <rect x="305.0" y="185.0" width="1.5" height="1.5" fill="#16213E"/>
        <rect x="306.5" y="185.0" width="1.5" height="1.5" fill="#16213E"/>
        <rect x="308.0" y="185.0" width="1.5" height="1.5" fill="#16213E"/>
        <rect x="311.0" y="185.0" width="1.5" height="1.5" fill="#16213E"/>
        <rect x="315.5" y="185.0" width="1.5" height="1.5" fill="#16213E"/>
        <rect x="317.0" y="185.0" width="1.5" height="1.5" fill="#16213E"/>
        <rect x="318.5" y="185.0" width="1.5" height="1.5" fill="#16213E"/>
        <rect x="323.0" y="185.0" width="1.5" height="1.5" fill="#16213E"/>
        <rect x="324.5" y="185.0" width="1.5" height="1.5" fill="#16213E"/>
        <rect x="330.5" y="185.0" width="1.5" height="1.5" fill="#16213E"/>
        <rect x="335.0" y="185.0" width="1.5" height="1.5" fill="#16213E"/>
      </g>

      <text x="24" y="180" font-size="6.5" font-style="italic" fill="#8A6D3A">Your Trusted Partner Along The Way</text>
      <text x="24" y="191" font-size="6.2" font-weight="700" fill="#16213E" letter-spacing="0.5">E-FILE CERTIFIED  ·  GST/HST REGISTERED</text>
    </g>
  </g>

  <!-- ===================== BACK (layered gold + navy, mirrored) ===================== -->
  <g transform="translate(112, 480)">
    <rect x="6" y="6" width="700" height="400" fill="#000000" opacity="0.12"/>
    <g transform="scale(2)" clip-path="url(#cardClipGold)">
      <rect x="0" y="0" width="350" height="200" fill="#16213E"/>
      <circle cx="-50" cy="100" r="182" fill="#D3A34F"/>
      <circle cx="-50" cy="100" r="168" fill="#F1E1BB"/>

      <g transform="translate(178, 78)">
        <rect x="0" y="10" width="7" height="28" fill="#D3A34F"/>
        <rect x="10" y="0" width="7" height="38" fill="#FFFFFF"/>
        <rect x="20" y="14" width="7" height="24" fill="#D3A34F"/>
        <text x="36" y="24" font-size="19" font-weight="700" fill="#FFFFFF" letter-spacing="0.4">KATAX</text>
        <text x="36" y="35" font-size="6.5" font-weight="500" fill="#E4CFA0" letter-spacing="0.7">ACCOUNTING &amp; TAX SERVICES</text>
      </g>
      <line x1="178" y1="42" x2="238" y2="42" stroke="#D3A34F" stroke-width="1.2"/>

      <text x="24" y="176" font-size="7.5" font-style="italic" fill="#16213E" opacity="0.8">Your Trusted Partner</text>
      <text x="24" y="186" font-size="7.5" font-style="italic" fill="#16213E" opacity="0.8">Along The Way</text>
    </g>
  </g>

</svg>
